PathFileType	4	(X/Y/Z)	Walk9.trc
DataRate	CameraRate	NumFrames	NumMarkers	Units	OrigDataRate	OrigDataStartFrame	OrigNumFrames
200.000000	200.000000	4	67	mm	200.000000	834	954
Frame#	Times		RCAR		LowerBodyModelVer		RUA1		LFHD		LTB3		LTH3		LTB2		RASI		LTB4		RFHD		LACR1		LTH1		RElbow		LToe		RACR1		RBHD		RTH3		LUA1		LCAR		RFA1		RWRU		RLFC		LASI		PELOrigin		RTH4		CLAV		LTH2		LWRR		RTB4		C7		STRN		LLFC		RBack		LElbow		RMT1		LFA1		RTH1		RTB3		LTB1		RTH2		LWRU		RToe		LPSI		RPSI		RTB1		LHJC		MidPelvis		OPelvis		RHJC		SACR		XPelvis		YPelvis		ZPelvis		LTH4		RTB2		RWRR		LElbowM		LMT1		LBHD		RLMAL		RMMAL		RCAL		LMMAL		T10		RElbowM		LCAL		LMT5
			X1	Y1	Z1	X2	Y2	Z2	X3	Y3	Z3	X4	Y4	Z4	X5	Y5	Z5	X6	Y6	Z6	X7	Y7	Z7	X8	Y8	Z8	X9	Y9	Z9	X10	Y10	Z10	X11	Y11	Z11	X12	Y12	Z12	X13	Y13	Z13	X14	Y14	Z14	X15	Y15	Z15	X16	Y16	Z16	X17	Y17	Z17	X18	Y18	Z18	X19	Y19	Z19	X20	Y20	Z20	X21	Y21	Z21	X22	Y22	Z22	X23	Y23	Z23	X24	Y24	Z24	X25	Y25	Z25	X26	Y26	Z26	X27	Y27	Z27	X28	Y28	Z28	X29	Y29	Z29	X30	Y30	Z30	X31	Y31	Z31	X32	Y32	Z32	X33	Y33	Z33	X34	Y34	Z34	X35	Y35	Z35	X36	Y36	Z36	X37	Y37	Z37	X38	Y38	Z38	X39	Y39	Z39	X40	Y40	Z40	X41	Y41	Z41	X42	Y42	Z42	X43	Y43	Z43	X44	Y44	Z44	X45	Y45	Z45	X46	Y46	Z46	X47	Y47	Z47	X48	Y48	Z48	X49	Y49	Z49	X50	Y50	Z50	X51	Y51	Z51	X52	Y52	Z52	X53	Y53	Z53	X54	Y54	Z54	X55	Y55	Z55	X56	Y56	Z56	X57	Y57	Z57	X58	Y58	Z58	X59	Y59	Z59	X60	Y60	Z60	X61	Y61	Z61	X62	Y62	Z62	X63	Y63	Z63	X64	Y64	Z64	X65	Y65	Z65	X66	Y66	Z66	X67	Y67	Z67

834	4.17	776.37	813.86	351.53	9	2014	4	638.1	1183.1	276.1	751.5	1567.4	-36.183	935.11	200.61	-49.166	744.24	584.74	-141.64	890.47	279.35	-99.147	738.49	960.69	177.61	914.95	283.76	-43.359	758.65	1566.6	58.08	615.57	1360.1	-137.55	667.9	731.46	-188.33	594.36	1063.4	314.15	1110.6	116.24	-53.642	641.26	1359.3	172.32	602.69	1535.7	89.066	578.06	576.9	194.75	572.97	1180.3	-226.7	550.81	759.53	-284.36	642.13	922.36	332.49	701.25	826.71	332.78	545.41	493.68	172.52	736.99	943.69	-117.3	737.74	952.19	30.154	603.85	653.97	217.1	692.37	1320.5	12.455	757.18	689.52	-157.99	556.88	806.48	-240.78	511.63	250.64	90.947	555.08	1401.3	29.449	750.82	1216.8	14.396	795.27	481.14	-108.46	511.31	1306.9	140.84	515.08	1061.7	-244.98	525.7	33.757	56.978	495.15	927.54	-265.11	634.71	732.13	243.87	482.57	170.09	91.625	896.07	368.48	-40.908	657.75	644.22	195.95	496.93	810.75	-279.17	594.75	26.031	90.684	489.45	940.7	-18.566	489.79	950.54	70.286	540.34	333.22	96.601	670.12	850.32	-64.236	613.68	948.9	28.007	737.74	952.19	30.154	671.14	861.88	136.31	489.62	945.62	25.86	817.71	954.2	29.632	735.7	1032	25.561	738.14	956.79	110.02	705.68	659.86	-160.77	489.83	257.65	149.56	756.37	858.95	297.44	495	1037.7	-166.99	1054.2	93.539	-19.442	594.96	1528.8	-53.736	414.69	70.583	113.41	429.92	74.8	31.112	347.62	45.061	78.38	949.04	91.954	7.108	476.74	1135.2	30.037	584.29	1025.4	223	885.39	29.449	-31.998	1054.5	95.752	-82.777
835	4.175	783.37	813.43	350.78	9	2014	4	644.19	1182.2	275.56	757.23	1566.5	-36.803	944.48	201.18	-48.879	750.41	583.66	-142.31	899.28	279.51	-99.019	744.27	959.92	177.62	923.19	284.09	-42.98	764.3	1565.8	57.47	621.55	1359.1	-138.13	674.09	730.54	-188.84	600.72	1062.5	313.62	1121.4	118.96	-51.89	647.08	1358.4	171.77	608.36	1534.8	88.389	582.63	576.43	194.6	578.31	1179.2	-227.16	553.8	758.57	-285.34	648.82	921.6	332.05	708.16	826.08	332.26	549.44	493.42	172.37	743.31	942.7	-117.45	743.79	951.31	30.085	608.83	653.32	216.99	698.34	1319.5	11.955	763.37	688.56	-158.22	560.67	805.37	-241.73	513.56	250.55	90.944	560.95	1400.3	28.811	756.8	1215.7	14.089	801.6	480.21	-108.69	517.12	1305.9	140.23	520.07	1060.8	-245.11	525.74	33.801	56.947	499.28	926.84	-265.27	640.12	731.35	243.75	483.8	170.24	91.655	903.2	368.57	-40.425	662.65	643.36	195.75	500.26	810.01	-279.35	594.82	25.887	90.791	495.63	939.62	-19.012	495.85	949.5	69.789	543.09	332.85	96.601	676.38	849.26	-64.41	619.76	947.93	27.737	743.79	951.31	30.085	677.03	860.97	136.24	495.74	944.56	25.388	823.76	953.37	29.705	741.7	1031.1	25.432	744.05	955.97	109.95	711.85	658.82	-161.52	491.78	257.8	149.55	763.09	858.42	296.71	500.45	1036.8	-167.04	1064.8	95.544	-18.318	600.75	1527.7	-54.437	415.07	71.366	113.49	430.29	75.445	31.171	347.76	46.301	78.493	959.4	92.627	7.2863	482.76	1134.2	29.478	590.47	1024.4	222.51	896.92	29.142	-32.548	1065.9	97.662	-81.538
836	4.18	790.27	812.93	350	9	2014	4	650.23	1181.4	275.01	762.97	1565.7	-37.436	953.31	201.55	-48.583	756.74	582.69	-142.85	907.7	279.55	-98.865	750.07	959.19	177.66	931.09	284.24	-42.588	769.96	1565	56.847	627.55	1358	-138.75	680.34	729.65	-189.33	607.04	1061.6	313.04	1131.4	121.18	-50.269	652.88	1357.5	171.21	614.04	1533.8	87.692	587.28	575.96	194.44	583.74	1178.2	-227.64	556.9	757.59	-286.26	655.43	920.83	331.56	714.96	825.41	331.72	553.57	493.16	172.22	749.69	941.73	-117.58	749.88	950.46	30.041	613.89	652.69	216.87	704.32	1318.6	11.43	769.64	687.69	-158.42	564.55	804.27	-242.66	515.53	250.46	90.951	566.83	1399.3	28.145	762.78	1214.7	13.759	808.04	479.35	-108.86	522.93	1304.9	139.57	525.15	1059.8	-245.28	525.77	33.856	56.93	503.52	926.13	-265.45	645.61	730.57	243.61	485.08	170.41	91.712	910.16	368.5	-39.924	667.63	642.51	195.54	503.71	809.27	-279.55	594.89	25.749	90.881	501.85	938.55	-19.508	501.95	948.48	69.243	545.92	332.48	96.598	682.7	848.23	-64.561	625.89	946.99	27.454	749.88	950.46	30.041	682.95	860.1	136.2	501.9	943.52	24.867	829.85	952.59	29.814	747.74	1030.3	25.322	749.98	955.18	109.9	718.14	657.85	-162.19	493.82	257.97	149.56	769.73	857.83	295.96	505.94	1035.8	-167.13	1074.6	97.123	-17.288	606.55	1526.7	-55.159	415.48	72.19	113.63	430.65	76.133	31.285	347.92	47.61	78.696	969.01	93.087	7.4732	488.82	1133.2	28.881	596.64	1023.4	221.97	907.54	28.798	-33.068	1076.4	99.231	-80.385
837	4.185	797.04	812.38	349.2	9	2014	4	656.23	1180.5	274.44	768.72	1564.9	-38.082	961.61	201.7	-48.274	763.23	581.83	-143.28	915.75	279.46	-98.686	755.89	958.51	177.72	938.64	284.21	-42.186	775.63	1564.2	56.212	633.58	1356.9	-139.39	686.66	728.78	-189.8	613.34	1060.8	312.42	1140.6	122.84	-48.79	658.67	1356.7	170.63	619.71	1532.9	86.972	592.03	575.5	194.28	589.26	1177.2	-228.14	560.12	756.62	-287.14	661.97	920.06	331.03	721.64	824.72	331.14	557.81	492.89	172.08	756.14	940.79	-117.68	756.01	949.65	30.018	619.03	652.06	216.73	710.32	1317.6	10.88	776.01	686.91	-158.6	568.51	803.18	-243.55	517.56	250.39	90.965	572.71	1398.3	27.449	768.78	1213.7	13.406	814.59	478.56	-108.96	528.73	1303.9	138.86	530.32	1058.9	-245.47	525.8	33.924	56.926	507.88	925.42	-265.65	651.18	729.81	243.44	486.4	170.61	91.795	916.96	368.27	-39.416	672.69	641.67	195.31	507.29	808.55	-279.77	594.96	25.617	90.957	508.11	937.52	-20.055	508.1	947.49	68.649	548.83	332.1	96.586	689.07	847.22	-64.694	632.06	946.07	27.157	756.01	949.65	30.018	688.9	859.27	136.18	508.1	942.5	24.297	835.98	951.84	29.955	753.82	1029.5	25.227	755.95	954.44	109.87	724.53	656.95	-162.77	495.96	258.15	149.59	776.27	857.18	295.18	511.47	1034.9	-167.27	1083.7	98.244	-16.354	612.36	1525.7	-55.901	415.91	73.057	113.83	431.01	76.865	31.454	348.1	48.992	78.991	977.86	93.316	7.6737	494.9	1132.2	28.246	602.8	1022.5	221.39	917.26	28.405	-33.535	1086.1	100.41	-79.322
